# xmcd CD database file
#
# Track frame offsets:
#	150
#	9825
#	19775
#	30990
#	41931
#	52176
#	62963
#	72906
#	85912
#	96081
#	105968
#	117654
#	128586
#	138284
#	151084
#	162213
#	172939
#	184135
#	195949
#	207991
#	218287
#	229959
#	241486
#	251357
#	261988
#	273395
#	287548
#	298050
#	306196
#	319269
#	332665
#	345770
#
# Disc length: 4775 seconds
#
# Revision: 0
# Processed by: cddbd v1.5.1PL0 Copyright (c) Steve Scherf et al.
# Submitted via: CDex 1.50beta10
#
DISCID=bf12a520
DTITLE=H-Bomb Ferguson - Rock, H-Bomb, Rock!!!
DYEAR=2000
DGENRE=Blues
TTITLE0=Rock, H-Bomb, Rock
TTITLE1=Work For My Baby
TTITLE2=Give It Up
TTITLE3=No Sackie Sack
TTITLE4=Bookie's Blues
TTITLE5=Good Time Gal
TTITLE6=Preachin' The Blues
TTITLE7=Crying Over You
TTITLE8=Good Lovin'
TTITLE9=Hard Lovin' Woman
TTITLE10=Lady Queen
TTITLE11=Hot Kisses
TTITLE12=Little Tiger
TTITLE13=I Love My Baby
TTITLE14=Mary, Little Mary
TTITLE15=Big City Blues
TTITLE16=Slowly Going Crazy
TTITLE17=I'm So Lonely
TTITLE18=Life Is Hard
TTITLE19=Midnight Ramblin' Tonight
TTITLE20=Feel Like I Do
TTITLE21=Spaghetti And Meatball
TTITLE22=New Way Blues
TTITLE23=My Brown Frame Baby
TTITLE24=I'm Crying Boo Hoo Hoo
TTITLE25=On My Way
TTITLE26=The Mess Around
TTITLE27=I Need You Baby
TTITLE28=Sundown Blues
TTITLE29=My Love
TTITLE30=Wine Head
TTITLE31=Tortured Love
EXTD=YEAR: 2000
EXTT0=
EXTT1=
EXTT2=
EXTT3=
EXTT4=
EXTT5=
EXTT6=
EXTT7=
EXTT8=
EXTT9=
EXTT10=
EXTT11=
EXTT12=
EXTT13=
EXTT14=
EXTT15=
EXTT16=
EXTT17=
EXTT18=
EXTT19=
EXTT20=
EXTT21=
EXTT22=
EXTT23=
EXTT24=
EXTT25=
EXTT26=
EXTT27=
EXTT28=
EXTT29=
EXTT30=
EXTT31=
PLAYORDER=
